PathFileType	4	(X/Y/Z)	 2.8Hzlow3min.trc
DataRate	CameraRate	NumFrames	NumMarkers	Units	OrigDataRate	OrigDataStartFrame	OrigNumFrames
200	200	10	39	m	200	126	1000
Frame#	Time	C7			LSH			RSH			MAN			RASI			LASI			HIPR			HIPL			RPSI			LPSI			COX			RTHI1			RTHI2			RTHI3			RTHI4			RLKN			RMKN			RSHA1			RSHA2			RSHA3			RSHA4			RHEEL			RMET5			RMET1			RTOE			LTHI1			LTHI2			LTHI3			LTHI4			LLKN			LMKN			LSHA1			LSHA2			LSHA3			LSHA4			LHEEL			LMET5			LMET1			LTOE			
		X1	Y1	Z1	X2	Y2	Z2	X3	Y3	Z3	X4	Y4	Z4	X5	Y5	Z5	X6	Y6	Z6	X7	Y7	Z7	X8	Y8	Z8	X9	Y9	Z9	X10	Y10	Z10	X11	Y11	Z11	X12	Y12	Z12	X13	Y13	Z13	X14	Y14	Z14	X15	Y15	Z15	X16	Y16	Z16	X17	Y17	Z17	X18	Y18	Z18	X19	Y19	Z19	X20	Y20	Z20	X21	Y21	Z21	X22	Y22	Z22	X23	Y23	Z23	X24	Y24	Z24	X25	Y25	Z25	X26	Y26	Z26	X27	Y27	Z27	X28	Y28	Z28	X29	Y29	Z29	X30	Y30	Z30	X31	Y31	Z31	X32	Y32	Z32	X33	Y33	Z33	X34	Y34	Z34	X35	Y35	Z35	X36	Y36	Z36	X37	Y37	Z37	X38	Y38	Z38	X39	Y39	Z39	
126	0.6300	-0.292570	1.528434	-0.523252	-0.240864	1.520908	-0.715840	-0.246291	1.516256	-0.340465	-0.139855	1.488197	-0.531692	-0.151620	1.013125	-0.420808	-0.150960	1.021469	-0.655257	-0.226738	1.088118	-0.369346	-0.218824	1.102064	-0.697788	-0.330188	1.064468	-0.499869	-0.327695	1.070783	-0.576991	-0.330231	1.063764	-0.537590	-0.252221	0.836447	-0.347376	-0.240923	0.778635	-0.341476	-0.176925	0.789892	-0.337996	-0.181549	0.850932	-0.344554	-0.246886	0.504391	-0.368507	-0.213812	0.496035	-0.489551	-0.317115	0.355137	-0.358617	-0.337702	0.318511	-0.369831	-0.281423	0.294725	-0.370007	-0.265082	0.331169	-0.364097	-0.403773	0.129717	-0.448174	-0.263669	0.039689	-0.370923	-0.211430	0.048290	-0.438246	-0.184344	0.037852	-0.432710	-0.263467	0.816623	-0.730127	-0.239479	0.759713	-0.736410	-0.179039	0.780472	-0.746253	-0.194070	0.838900	-0.740674	-0.230212	0.525512	-0.721639	-0.207363	0.510559	-0.599306	-0.332310	0.317822	-0.722743	-0.347001	0.280873	-0.714092	-0.288369	0.262137	-0.726854	-0.281165	0.304768	-0.734132	-0.400797	0.124524	-0.654566	-0.256702	0.043691	-0.734531	-0.208740	0.051420	-0.667063	-0.180067	0.037211	-0.672557	
127	0.6350	-0.292877	1.531292	-0.523298	-0.241105	1.524418	-0.715423	-0.246593	1.519565	-0.340756	-0.140351	1.491752	-0.531650	-0.151333	1.016026	-0.420955	-0.150752	1.024476	-0.655245	-0.225871	1.091849	-0.369443	-0.217914	1.106196	-0.697776	-0.329601	1.068440	-0.499828	-0.327156	1.074737	-0.577071	-0.329668	1.067804	-0.537575	-0.252321	0.839686	-0.347413	-0.241189	0.781789	-0.341486	-0.177173	0.792855	-0.337869	-0.181570	0.853892	-0.344409	-0.247657	0.507482	-0.368503	-0.214266	0.499000	-0.489585	-0.317123	0.357779	-0.358380	-0.337444	0.321029	-0.369660	-0.281035	0.297577	-0.369582	-0.264936	0.334130	-0.363611	-0.402271	0.132312	-0.447634	-0.263065	0.040428	-0.371012	-0.211138	0.048579	-0.438138	-0.184309	0.037982	-0.432462	-0.263829	0.820083	-0.729930	-0.240013	0.763128	-0.736307	-0.179539	0.783735	-0.746279	-0.194403	0.842198	-0.740662	-0.231145	0.528609	-0.721487	-0.207863	0.513441	-0.599137	-0.331984	0.320195	-0.722714	-0.346391	0.283108	-0.714168	-0.287677	0.264813	-0.727220	-0.280792	0.307537	-0.734344	-0.399263	0.127008	-0.654664	-0.256388	0.044586	-0.734411	-0.208229	0.051974	-0.667668	-0.179905	0.037368	-0.673203	
128	0.6400	-0.293138	1.534004	-0.523334	-0.241298	1.527732	-0.715039	-0.246857	1.522675	-0.341030	-0.140811	1.495097	-0.531603	-0.151093	1.018776	-0.421111	-0.150592	1.027327	-0.655272	-0.225135	1.095387	-0.369553	-0.217067	1.110171	-0.697790	-0.329052	1.072292	-0.499792	-0.326673	1.078557	-0.577137	-0.329139	1.071729	-0.537557	-0.252480	0.842766	-0.347516	-0.241483	0.784776	-0.341549	-0.177455	0.795678	-0.337769	-0.181639	0.856699	-0.344281	-0.248257	0.510390	-0.368533	-0.214547	0.501801	-0.489635	-0.316982	0.360261	-0.358180	-0.337058	0.323392	-0.369510	-0.280525	0.300257	-0.369224	-0.264657	0.336914	-0.363194	-0.400776	0.134789	-0.447179	-0.262448	0.041240	-0.371128	-0.210813	0.048920	-0.437995	-0.184241	0.038148	-0.432103	-0.264233	0.823356	-0.729669	-0.240562	0.766354	-0.736145	-0.180071	0.786843	-0.746276	-0.194795	0.845334	-0.740616	-0.231920	0.531489	-0.721294	-0.208294	0.516136	-0.598922	-0.331563	0.322378	-0.722669	-0.345709	0.285174	-0.714209	-0.286910	0.267292	-0.727473	-0.280318	0.310086	-0.734473	-0.397835	0.129336	-0.654665	-0.256136	0.045605	-0.734257	-0.207680	0.052585	-0.668367	-0.179723	0.037576	-0.674034	
129	0.6450	-0.293357	1.536554	-0.523358	-0.241444	1.530837	-0.714692	-0.247070	1.525571	-0.341278	-0.141248	1.498194	-0.531558	-0.150902	1.021357	-0.421268	-0.150479	1.030005	-0.655341	-0.224539	1.098711	-0.369685	-0.216313	1.113957	-0.697820	-0.328550	1.075994	-0.499761	-0.326255	1.082220	-0.577184	-0.328643	1.075498	-0.537534	-0.252679	0.845628	-0.347700	-0.241781	0.787582	-0.341663	-0.177747	0.798342	-0.337698	-0.181742	0.859338	-0.344179	-0.248680	0.513088	-0.368580	-0.214656	0.504413	-0.489697	-0.316708	0.362561	-0.358019	-0.336557	0.325585	-0.369393	-0.279914	0.302749	-0.368928	-0.264261	0.339499	-0.362844	-0.399319	0.137142	-0.446842	-0.261834	0.042132	-0.371260	-0.210452	0.049308	-0.437792	-0.184148	0.038362	-0.431608	-0.264649	0.826396	-0.729316	-0.241109	0.769373	-0.735932	-0.180614	0.789777	-0.746236	-0.195229	0.848279	-0.740547	-0.232517	0.534121	-0.721068	-0.208664	0.518622	-0.598665	-0.331063	0.324368	-0.722609	-0.344984	0.287076	-0.714213	-0.286097	0.269552	-0.727597	-0.279761	0.312398	-0.734507	-0.396546	0.131476	-0.654511	-0.255946	0.046761	-0.734107	-0.207120	0.053261	-0.669163	-0.179528	0.037852	-0.675068	
130	0.6500	-0.293536	1.538928	-0.523368	-0.241556	1.533722	-0.714383	-0.247225	1.528235	-0.341497	-0.141626	1.501043	-0.531508	-0.150761	1.023766	-0.421421	-0.150412	1.032490	-0.655454	-0.224086	1.101797	-0.369841	-0.215665	1.117515	-0.697854	-0.328104	1.079513	-0.499732	-0.325903	1.085682	-0.577225	-0.328184	1.079080	-0.537508	-0.252922	0.848281	-0.348002	-0.242062	0.790188	-0.341822	-0.178033	0.800831	-0.337671	-0.181871	0.861802	-0.344119	-0.248907	0.515543	-0.368619	-0.214600	0.506802	-0.489764	-0.316308	0.364661	-0.357897	-0.335957	0.327593	-0.369295	-0.279217	0.305031	-0.368705	-0.263753	0.341858	-0.362576	-0.397951	0.139318	-0.446595	-0.261242	0.043095	-0.371388	-0.210075	0.049731	-0.437493	-0.184038	0.038632	-0.430940	-0.265062	0.829188	-0.728891	-0.241634	0.772168	-0.735678	-0.181143	0.792515	-0.746159	-0.195683	0.851010	-0.740452	-0.232919	0.536485	-0.720815	-0.208988	0.520897	-0.598369	-0.330511	0.326169	-0.722529	-0.344254	0.288806	-0.714178	-0.285281	0.271577	-0.727580	-0.279152	0.314454	-0.734434	-0.395432	0.133403	-0.654209	-0.255813	0.048057	-0.734012	-0.206559	0.054024	-0.670061	-0.179314	0.038224	-0.676320	
131	0.6550	-0.293679	1.541108	-0.523360	-0.241635	1.536370	-0.714112	-0.247308	1.530639	-0.341675	-0.141954	1.503615	-0.531459	-0.150673	1.025986	-0.421569	-0.150393	1.034768	-0.655611	-0.223774	1.104633	-0.370024	-0.215152	1.120811	-0.697885	-0.327716	1.082817	-0.499704	-0.325625	1.088917	-0.577255	-0.327779	1.082449	-0.537479	-0.253141	0.850691	-0.348327	-0.242304	0.792567	-0.342021	-0.178287	0.803139	-0.337688	-0.181995	0.864066	-0.344096	-0.248945	0.517741	-0.368656	-0.214399	0.508948	-0.489835	-0.315790	0.366551	-0.357810	-0.335275	0.329398	-0.369220	-0.278454	0.307077	-0.368546	-0.263153	0.343966	-0.362385	-0.396693	0.141320	-0.446479	-0.260682	0.044116	-0.371497	-0.209699	0.050200	-0.437067	-0.183942	0.038960	-0.430056	-0.265469	0.831731	-0.728483	-0.242111	0.774714	-0.735404	-0.181634	0.795037	-0.746050	-0.196126	0.853517	-0.740321	-0.233105	0.538566	-0.720548	-0.209262	0.522960	-0.598041	-0.329941	0.327778	-0.722415	-0.343558	0.290371	-0.714083	-0.284500	0.273355	-0.727422	-0.278523	0.316258	-0.734254	-0.394498	0.135117	-0.653754	-0.255729	0.049494	-0.734020	-0.206006	0.054911	-0.671092	-0.179078	0.038705	-0.677809	
132	0.6600	-0.293798	1.543073	-0.523340	-0.241689	1.538774	-0.713876	-0.247321	1.532767	-0.341809	-0.142232	1.505897	-0.531415	-0.150633	1.028005	-0.421711	-0.150422	1.036825	-0.655806	-0.223590	1.107203	-0.370231	-0.214794	1.123820	-0.697912	-0.327390	1.085871	-0.499678	-0.325422	1.091891	-0.577278	-0.327435	1.085570	-0.537445	-0.253309	0.852823	-0.348645	-0.242490	0.794705	-0.342251	-0.178483	0.805226	-0.337755	-0.182112	0.866137	-0.344134	-0.248767	0.519661	-0.368670	-0.214082	0.510843	-0.489911	-0.315177	0.368217	-0.357754	-0.334534	0.330998	-0.369170	-0.277651	0.308872	-0.368459	-0.262484	0.345809	-0.362271	-0.395553	0.143115	-0.446497	-0.260174	0.045184	-0.371549	-0.209297	0.050765	-0.436498	-0.183853	0.039371	-0.428941	-0.265825	0.833986	-0.728049	-0.242520	0.776996	-0.735122	-0.182064	0.797313	-0.745906	-0.196528	0.855772	-0.740179	-0.233078	0.540358	-0.720274	-0.209479	0.524806	-0.597688	-0.329377	0.329210	-0.722253	-0.342926	0.291784	-0.713922	-0.283791	0.274897	-0.727134	-0.277908	0.317806	-0.733977	-0.393742	0.136594	-0.653100	-0.255694	0.051074	-0.734171	-0.205468	0.055943	-0.672271	-0.178814	0.039333	-0.679539	
133	0.6650	-0.293900	1.544807	-0.523307	-0.241720	1.540926	-0.713668	-0.247261	1.534608	-0.341901	-0.142462	1.507878	-0.531379	-0.150641	1.029813	-0.421849	-0.150497	1.038649	-0.656037	-0.223525	1.109497	-0.370458	-0.214588	1.126514	-0.697927	-0.327132	1.088647	-0.499654	-0.325296	1.094585	-0.577295	-0.327160	1.088408	-0.537408	-0.253410	0.854662	-0.348944	-0.242597	0.796570	-0.342495	-0.178599	0.807079	-0.337868	-0.182199	0.867989	-0.344226	-0.248389	0.521294	-0.368655	-0.213680	0.512478	-0.489993	-0.314498	0.369648	-0.357727	-0.333763	0.332382	-0.369160	-0.276836	0.310407	-0.368443	-0.261778	0.347372	-0.362228	-0.394538	0.144670	-0.446643	-0.259732	0.046312	-0.371503	-0.208878	0.051412	-0.435758	-0.183757	0.039898	-0.427590	-0.266120	0.835951	-0.727644	-0.242839	0.779000	-0.734851	-0.182402	0.799325	-0.745728	-0.196864	0.857763	-0.740022	-0.232845	0.541862	-0.720007	-0.209622	0.526427	-0.597325	-0.328851	0.330474	-0.722033	-0.342377	0.293051	-0.713685	-0.283182	0.276204	-0.726739	-0.277338	0.319116	-0.733620	-0.393136	0.137821	-0.652254	-0.255726	0.052759	-0.734471	-0.204962	0.057122	-0.673609	-0.178536	0.040131	-0.681482	
134	0.6700	-0.293987	1.546298	-0.523267	-0.241740	1.542810	-0.713489	-0.247135	1.536155	-0.341951	-0.142644	1.509557	-0.531356	-0.150693	1.031399	-0.421985	-0.150612	1.040231	-0.656296	-0.223560	1.111505	-0.370701	-0.214515	1.128865	-0.697926	-0.326945	1.091110	-0.499632	-0.325243	1.096964	-0.577304	-0.326954	1.090935	-0.537369	-0.253420	0.856231	-0.349143	-0.242616	0.798156	-0.342741	-0.178624	0.808685	-0.338033	-0.182237	0.869601	-0.344374	-0.247848	0.522648	-0.368638	-0.213208	0.513847	-0.490081	-0.313781	0.370839	-0.357720	-0.332989	0.333550	-0.369171	-0.276032	0.311683	-0.368502	-0.261058	0.348657	-0.362254	-0.393652	0.145936	-0.446905	-0.259361	0.047502	-0.371310	-0.208422	0.052189	-0.434825	-0.183629	0.040586	-0.426008	-0.266349	0.837640	-0.727360	-0.243047	0.780711	-0.734609	-0.182627	0.801056	-0.745522	-0.197109	0.859484	-0.739838	-0.232426	0.543091	-0.719758	-0.209678	0.527836	-0.596971	-0.328387	0.331580	-0.721750	-0.341925	0.294173	-0.713369	-0.282699	0.277297	-0.726269	-0.276840	0.320207	-0.733209	-0.392650	0.138810	-0.651252	-0.255834	0.054479	-0.734892	-0.204491	0.058438	-0.675061	-0.178245	0.041112	-0.683555	
135	0.6750	-0.294065	1.547540	-0.523223	-0.241750	1.544415	-0.713336	-0.246952	1.537402	-0.341962	-0.142801	1.510920	-0.531353	-0.150783	1.032746	-0.422121	-0.150763	1.041567	-0.656572	-0.223682	1.113223	-0.370951	-0.214579	1.130858	-0.697911	-0.326828	1.093240	-0.499612	-0.325258	1.099020	-0.577306	-0.326821	1.093114	-0.537320	-0.253313	0.857507	-0.349197	-0.242536	0.799457	-0.342978	-0.178549	0.810030	-0.338248	-0.182207	0.870951	-0.344573	-0.247196	0.523740	-0.368651	-0.212688	0.514963	-0.490175	-0.313054	0.371810	-0.357731	-0.332242	0.334510	-0.369210	-0.275267	0.312704	-0.368623	-0.260363	0.349663	-0.362328	-0.392885	0.146906	-0.447299	-0.259049	0.048777	-0.370932	-0.207911	0.053117	-0.433698	-0.183416	0.041482	-0.424242	-0.266489	0.839040	-0.727220	-0.243129	0.782119	-0.734413	-0.182723	0.802495	-0.745294	-0.197241	0.860920	-0.739636	-0.231855	0.544059	-0.719541	-0.209617	0.529033	-0.596645	-0.328000	0.332537	-0.721401	-0.341582	0.295152	-0.712971	-0.282349	0.278207	-0.725772	-0.276440	0.321103	-0.732775	-0.392256	0.139569	-0.650133	-0.256015	0.056162	-0.735380	-0.204065	0.059857	-0.676553	-0.177956	0.042261	-0.685634	
